<?xml version="1.0" encoding="UTF-8"?>
<svg version="1.1" xmlns="http://www.w3.org/2000/svg" width="250" height="250">
<path d="M0 0 C1.35077542 -0.00390576 2.70154964 -0.00824413 4.05232239 -0.01298523 C6.8650818 -0.02038085 9.67771559 -0.02020634 12.49047852 -0.01489258 C15.33438968 -0.01026794 18.17787258 -0.01716216 21.02172852 -0.03540039 C52.83420782 -0.23760823 82.14309616 2.8183839 106.58203125 25.30078125 C107.07300293 25.749375 107.56397461 26.19796875 108.06982422 26.66015625 C129.94798456 46.86605631 140.52439884 72.88721824 142.58203125 102.30078125 C142.72067888 106.24017184 142.7457173 110.17557296 142.75 114.1171875 C142.7533284 115.21312729 142.7566568 116.30906708 142.76008606 117.43821716 C142.76511767 119.74502141 142.76749556 122.05183285 142.76733398 124.35864258 C142.76951021 127.82971657 142.7876787 131.30046682 142.80664062 134.77148438 C142.84903169 150.85857152 142.88440609 167.14500057 137.89453125 182.61328125 C137.6325293 183.44738525 137.37052734 184.28148926 137.10058594 185.14086914 C129.00778945 209.86593894 110.52436624 228.99131264 87.58203125 240.67578125 C66.61683637 250.89010844 44.4102654 250.6344875 21.578125 250.56152344 C17.58968912 250.55080184 13.60170352 250.56147305 9.61328125 250.57421875 C-26.0526884 250.59447483 -55.26105874 245.37276623 -81.41796875 219.30078125 C-101.43637883 197.7476264 -107.55475305 171.18521422 -107.5859375 142.484375 C-107.5892659 141.38843521 -107.5925943 140.29249542 -107.59602356 139.16334534 C-107.60105517 136.85654109 -107.60343306 134.54972965 -107.60327148 132.24291992 C-107.60544771 128.77184593 -107.6236162 125.30109568 -107.64257812 121.83007812 C-107.73459962 85.98947122 -101.06508596 55.53523702 -75.41796875 29.30078125 C-74.79019531 28.62273438 -74.16242188 27.9446875 -73.515625 27.24609375 C-54.47502747 7.08546107 -26.78929175 -0.01946294 0 0 Z " fill="#157132" transform="translate(107.41796875,-0.30078125)"/>
<path d="M0 0 C1.35077542 -0.00390576 2.70154964 -0.00824413 4.05232239 -0.01298523 C6.8650818 -0.02038085 9.67771559 -0.02020634 12.49047852 -0.01489258 C15.33438968 -0.01026794 18.17787258 -0.01716216 21.02172852 -0.03540039 C52.83420782 -0.23760823 82.14309616 2.8183839 106.58203125 25.30078125 C107.07300293 25.749375 107.56397461 26.19796875 108.06982422 26.66015625 C129.94798456 46.86605631 140.52439884 72.88721824 142.58203125 102.30078125 C142.72067888 106.24017184 142.7457173 110.17557296 142.75 114.1171875 C142.7533284 115.21312729 142.7566568 116.30906708 142.76008606 117.43821716 C142.76511767 119.74502141 142.76749556 122.05183285 142.76733398 124.35864258 C142.76951021 127.82971657 142.7876787 131.30046682 142.80664062 134.77148438 C142.84903169 150.85857152 142.88440609 167.14500057 137.89453125 182.61328125 C137.6325293 183.44738525 137.37052734 184.28148926 137.10058594 185.14086914 C129.00778945 209.86593894 110.52436624 228.99131264 87.58203125 240.67578125 C66.61683637 250.89010844 44.4102654 250.6344875 21.578125 250.56152344 C17.58968912 250.55080184 13.60170352 250.56147305 9.61328125 250.57421875 C-26.0526884 250.59447483 -55.26105874 245.37276623 -81.41796875 219.30078125 C-101.43637883 197.7476264 -107.55475305 171.18521422 -107.5859375 142.484375 C-107.5892659 141.38843521 -107.5925943 140.29249542 -107.59602356 139.16334534 C-107.60105517 136.85654109 -107.60343306 134.54972965 -107.60327148 132.24291992 C-107.60544771 128.77184593 -107.6236162 125.30109568 -107.64257812 121.83007812 C-107.73459962 85.98947122 -101.06508596 55.53523702 -75.41796875 29.30078125 C-74.79019531 28.62273438 -74.16242188 27.9446875 -73.515625 27.24609375 C-54.47502747 7.08546107 -26.78929175 -0.01946294 0 0 Z M-70.41796875 34.30078125 C-71.23910156 35.079375 -72.06023437 35.85796875 -72.90625 36.66015625 C-93.29549945 57.66506687 -99.51181435 84.6825713 -99.62109375 113.0546875 C-99.62679382 114.23562485 -99.6324939 115.41656219 -99.6383667 116.63328552 C-99.64775199 119.11822634 -99.65432467 121.60317925 -99.65820312 124.08813477 C-99.6678805 127.82916745 -99.69895604 131.56964321 -99.73046875 135.31054688 C-99.86977764 166.76132359 -95.08445414 193.36644965 -72.41796875 216.30078125 C-71.76183594 217.02910156 -71.10570313 217.75742188 -70.4296875 218.5078125 C-62.64096984 226.96365801 -51.13539304 234.11066841 -40.41796875 238.30078125 C-39.42796875 238.30078125 -38.43796875 238.30078125 -37.41796875 238.30078125 C-37.34825629 225.46968424 -37.29504985 212.63863279 -37.26253223 199.80738449 C-37.24692025 193.84840931 -37.22576389 187.88956433 -37.19165039 181.93066406 C-37.15889729 176.17293275 -37.14108218 170.41532618 -37.13333702 164.65750885 C-37.12782205 162.46803069 -37.11705313 160.27855884 -37.10077858 158.08913422 C-36.99911015 143.83628141 -37.33220581 131.12457318 -44.10546875 118.23828125 C-44.45432129 117.56200684 -44.80317383 116.88573242 -45.16259766 116.18896484 C-53.25504284 100.88708489 -66.39574027 84.97485741 -83.41796875 79.30078125 C-67.57660905 80.40599239 -53.14801447 90.15941712 -42.41796875 101.30078125 C-26.27447189 120.22259731 -23.97330068 139.04775625 -23.90625 162.8828125 C-23.88937867 165.15110735 -23.87122518 167.41939298 -23.85185242 169.68766785 C-23.80461289 175.61733115 -23.77463559 181.54695709 -23.74841309 187.47674561 C-23.71847537 193.54381687 -23.6719908 199.61075974 -23.62695312 205.67773438 C-23.54121672 217.55201581 -23.4737403 229.42632388 -23.41796875 241.30078125 C-20.11796875 241.30078125 -16.81796875 241.30078125 -13.41796875 241.30078125 C-13.39476625 228.02668917 -13.37701337 214.75260194 -13.36615658 201.47849369 C-13.36094505 195.31434982 -13.35387885 189.15021985 -13.3425293 182.98608398 C-13.3316389 177.03386232 -13.32567888 171.081654 -13.32309151 165.12942314 C-13.32124834 162.8621239 -13.31764913 160.59482535 -13.31223869 158.32753181 C-13.3049466 155.14420129 -13.30398125 151.96092547 -13.30444336 148.77758789 C-13.29905045 147.38143501 -13.29905045 147.38143501 -13.29354858 145.95707703 C-13.32642994 124.9310782 -20.82265527 107.23005413 -34.41796875 91.30078125 C-35.05992188 90.51445313 -35.701875 89.728125 -36.36328125 88.91796875 C-47.08848691 76.29309566 -60.65086073 67.54026591 -75.41796875 60.30078125 C-58.83396405 62.86098474 -44.25809181 69.61290739 -31.41796875 80.30078125 C-30.51111328 81.00654297 -30.51111328 81.00654297 -29.5859375 81.7265625 C-13.81065842 94.36815183 -2.84601434 116.44445086 -0.41796875 136.30078125 C0.15280698 144.46949213 0.07156997 152.67115975 0.09375 160.85546875 C0.11062287 163.21201497 0.12877656 165.56855234 0.14814758 167.92507935 C0.19537043 174.08324413 0.22535844 180.24137299 0.25158691 186.3996582 C0.28153316 192.70140677 0.32801474 199.00303188 0.37304688 205.3046875 C0.45876424 217.6366538 0.52624901 229.96864572 0.58203125 242.30078125 C3.88203125 242.30078125 7.18203125 242.30078125 10.58203125 242.30078125 C10.62849164 228.6873609 10.66396993 215.07395959 10.68565559 201.46047592 C10.69606668 195.13833555 10.71017686 188.81624965 10.73291016 182.49414062 C10.75473411 176.38628864 10.76661998 170.27848888 10.77178574 164.17060089 C10.77546439 161.84716216 10.78264764 159.52372609 10.79349136 157.20030975 C10.8081333 153.93132989 10.81000391 150.66256237 10.80908203 147.39355469 C10.81986786 145.97150223 10.81986786 145.97150223 10.83087158 144.52072144 C10.74017951 114.55546275 -3.21721341 90.55959323 -23.8671875 69.84375 C-34.11788186 60.11401769 -45.9727102 52.4543722 -58.2578125 45.54296875 C-60.41796875 44.30078125 -60.41796875 44.30078125 -61.41796875 43.30078125 C-42.31525588 48.56711134 -26.71841435 56.64010908 -11.59765625 69.61328125 C-9.61382299 71.50483898 -9.61382299 71.50483898 -7.41796875 71.30078125 C-6.73734375 70.22828125 -6.05671875 69.15578125 -5.35546875 68.05078125 C-4.97261719 67.4475 -4.58976562 66.84421875 -4.1953125 66.22265625 C-3.20177844 63.76628057 -3.56799043 62.77986027 -4.41796875 60.30078125 C-6.35983232 58.03034016 -8.29444108 55.95104668 -10.41796875 53.86328125 C-11.03373779 53.25363525 -11.64950684 52.64398926 -12.28393555 52.01586914 C-17.02151123 47.43186155 -22.0038169 43.25210276 -27.23046875 39.23828125 C-28.25043945 38.45336304 -28.25043945 38.45336304 -29.29101562 37.65258789 C-34.09497445 34.05948197 -39.11271257 31.09403523 -44.41796875 28.30078125 C-26.63772115 32.16531954 -10.78616761 42.17613578 2.58203125 54.30078125 C6.32223623 52.61926052 8.14337473 50.61038652 10.58203125 47.30078125 C5.20032077 34.89217417 -10.59805272 25.60011723 -21.41796875 18.30078125 C-16.77572865 18.30078125 -13.6407602 19.73229128 -9.54296875 21.67578125 C-8.42426392 22.20292725 -8.42426392 22.20292725 -7.28295898 22.74072266 C0.91098763 26.74239727 9.10218054 31.82093054 15.58203125 38.30078125 C19.79054156 38.02768324 21.92329053 36.48035925 25.01953125 33.73828125 C33.69841703 26.55531041 46.86210677 17.30078125 58.58203125 17.30078125 C57.56496094 17.90212891 57.56496094 17.90212891 56.52734375 18.515625 C49.49028807 22.813882 43.58521094 27.67653982 37.58203125 33.30078125 C36.14995357 34.55698974 34.71283444 35.80748637 33.26953125 37.05078125 C30.24009908 39.68694028 27.37724859 42.41821337 24.58203125 45.30078125 C25.89427673 49.23751769 27.50113452 51.52797419 30.58203125 54.30078125 C34.33205413 52.66799617 37.2999607 50.2193088 40.45703125 47.67578125 C50.49954135 39.79208871 64.52300639 29.30078125 77.58203125 29.30078125 C76.73382813 29.81125 75.885625 30.32171875 75.01171875 30.84765625 C65.75934687 36.53466185 57.58657315 42.9757381 49.58203125 50.30078125 C49.02193359 50.80496582 48.46183594 51.30915039 47.88476562 51.82861328 C46.28524107 53.27918093 44.71121963 54.75238679 43.14453125 56.23828125 C42.23832031 57.09292969 41.33210937 57.94757812 40.3984375 58.828125 C38.29855089 61.14496813 38.29855089 61.14496813 38.69921875 63.94140625 C39.70383544 66.62631103 41.00977443 68.90821653 42.58203125 71.30078125 C45.80730704 69.85195533 48.21329768 68.03052756 50.89453125 65.73828125 C63.25066464 55.7408811 82.2691399 43.30078125 98.58203125 43.30078125 C97.855 43.64109375 97.12796875 43.98140625 96.37890625 44.33203125 C66.80705069 58.58718213 41.21237604 81.95319514 29.52734375 113.11328125 C29.05271837 114.63991135 28.61282891 116.17826305 28.22547626 117.72933578 C27.78517435 119.48894591 27.31577976 121.24146106 26.82178783 122.98675919 C24.8885628 130.04628267 24.16155838 136.46104842 24.24145508 143.76074219 C24.241017 144.83538727 24.24057892 145.91003235 24.24012756 147.01724243 C24.24219589 150.52340703 24.26543402 154.02907654 24.2890625 157.53515625 C24.29466541 159.98422993 24.29893222 162.433307 24.30192566 164.88238525 C24.31331963 171.29387881 24.34273961 177.70516493 24.3760376 184.11657715 C24.40685639 190.67274165 24.42045614 197.22894002 24.43554688 203.78515625 C24.46761478 216.62378851 24.51874469 229.46226755 24.58203125 242.30078125 C27.88203125 242.30078125 31.18203125 242.30078125 34.58203125 242.30078125 C34.58345627 241.00246872 34.58488129 239.70415619 34.58634949 238.36650085 C34.60311126 226.05483718 34.64616307 213.74350014 34.71412182 201.4320097 C34.74822723 195.10444708 34.77347608 188.77712172 34.77758789 182.44946289 C34.78190627 176.3283828 34.81065968 170.20783641 34.85546303 164.0869236 C34.86832575 161.76651953 34.87278621 159.44605123 34.86818504 157.12561607 C34.84180333 139.76056341 35.96929066 122.5514529 44.95703125 107.17578125 C45.53783447 106.13272827 45.53783447 106.13272827 46.13037109 105.06860352 C49.15637118 99.75099076 52.55674082 94.91329052 56.58203125 90.30078125 C57.35740234 89.31271484 57.35740234 89.31271484 58.1484375 88.3046875 C70.35391746 73.21694962 89.02888248 64.50912906 107.58203125 60.30078125 C108.90203125 60.30078125 110.22203125 60.30078125 111.58203125 60.30078125 C110.56625 60.77386719 109.55046875 61.24695312 108.50390625 61.734375 C99.4089509 66.06324528 91.34418516 70.79706918 83.58203125 77.30078125 C82.57398438 78.14511719 81.5659375 78.98945312 80.52734375 79.859375 C64.23811236 93.93157585 51.46718223 113.62432996 48.58203125 135.30078125 C48.44307216 138.77171862 48.45562695 142.23910198 48.46850586 145.71240234 C48.46828682 147.2645343 48.46828682 147.2645343 48.46806335 148.84802246 C48.46875815 152.25677613 48.47653028 155.66547466 48.484375 159.07421875 C48.48624072 161.44218923 48.4876639 163.8101601 48.48866272 166.1781311 C48.49247578 172.40221223 48.50229574 178.62626991 48.5133667 184.8503418 C48.52360685 191.20491214 48.52816592 197.55948628 48.53320312 203.9140625 C48.54391909 216.37631236 48.56098098 228.83854486 48.58203125 241.30078125 C51.88203125 241.30078125 55.18203125 241.30078125 58.58203125 241.30078125 C58.58345627 240.03339111 58.58488129 238.76600098 58.58634949 237.46020508 C58.60309284 225.45664124 58.64608951 213.45341323 58.71412182 201.45002747 C58.74826391 195.2804386 58.77348188 189.11109402 58.77758789 182.94140625 C58.78189828 176.97594543 58.81058712 171.01103449 58.85546303 165.04574585 C58.86835085 162.78147598 58.87277703 160.51714002 58.86818504 158.25283813 C58.83129994 134.51995456 63.78335486 115.29353864 80.96484375 97.88671875 C86.39275923 92.79911146 92.03665402 88.81529415 98.58203125 85.30078125 C99.29488281 84.91019531 100.00773438 84.51960938 100.7421875 84.1171875 C106.53111427 81.07214509 111.97078678 79.16562804 118.58203125 79.30078125 C117.97617188 79.56890625 117.3703125 79.83703125 116.74609375 80.11328125 C109.86819378 83.33002216 104.26848295 87.2886844 98.58203125 92.30078125 C97.81890625 92.96851562 97.05578125 93.63625 96.26953125 94.32421875 C84.02063881 105.76502454 72.81515956 124.31573041 72.2212677 141.37564087 C72.21271749 143.18352502 72.22021089 144.99153686 72.24145508 146.79931641 C72.241017 147.79564087 72.24057892 148.79196533 72.24012756 149.81848145 C72.24219932 153.07580925 72.26545384 156.33260708 72.2890625 159.58984375 C72.29466419 161.86241373 72.29893158 164.13498735 72.30192566 166.40756226 C72.31332923 172.36206222 72.34275765 178.31633943 72.3760376 184.27075195 C72.40683549 190.35755399 72.42045171 196.44439235 72.43554688 202.53125 C72.46763176 214.45452445 72.51877353 226.37763426 72.58203125 238.30078125 C83.72933103 236.34033248 94.36274099 228.7883064 102.58203125 221.30078125 C103.54753906 220.42808594 104.51304687 219.55539063 105.5078125 218.65625 C116.4145951 208.45941751 124.74341979 196.49932962 129.58203125 182.30078125 C129.8759375 181.4809375 130.16984375 180.66109375 130.47265625 179.81640625 C135.36725957 164.36481538 134.89000573 147.09897945 134.7878418 131.07250977 C134.76947935 128.10489307 134.76733401 125.13758986 134.76757812 122.16992188 C134.70646987 87.40725519 129.55062136 59.35678065 104.58203125 33.30078125 C83.80004228 13.36473484 59.18052102 7.19630076 31.0078125 7.09765625 C29.72577438 7.09195618 28.44373627 7.0862561 27.12284851 7.0803833 C24.42084363 7.06995125 21.71886781 7.06405807 19.0168457 7.06054688 C16.27745213 7.05616579 13.53837415 7.04227355 10.79907227 7.01953125 C-21.11496562 6.7597708 -46.75331604 11.6843204 -70.41796875 34.30078125 Z " fill="#F9FBFA" transform="translate(107.41796875,-0.30078125)"/>
<path d="M0 0 C0.66 0 1.32 0 2 0 C6.97388724 7.58991098 6.97388724 7.58991098 7.0625 12.375 C5.6067132 17.34180202 3.87509077 22.17709211 2 27 C1.34 27 0.68 27 0 27 C-6.05940594 13.0570763 -6.05940594 13.0570763 -4 7 C-2.78744343 4.55063573 -1.4659576 2.31715879 0 0 Z " fill="#1C7538" transform="translate(124,89)"/>
<path d="M0 0 C3.24298429 1.08099476 3.81612526 1.65626616 5.75 4.3125 C6.19859375 4.90675781 6.6471875 5.50101563 7.109375 6.11328125 C8 8 8 8 7.79296875 9.99609375 C6.93690714 12.15944156 5.92134097 13.86294488 4.5625 15.75 C4.13066406 16.36359375 3.69882813 16.9771875 3.25390625 17.609375 C2.84011719 18.06828125 2.42632812 18.5271875 2 19 C1.34 19 0.68 19 0 19 C-1.54296875 17.390625 -1.54296875 17.390625 -3.1875 15.25 C-3.73792969 14.55390625 -4.28835937 13.8578125 -4.85546875 13.140625 C-6 11 -6 11 -5.8359375 8.96875 C-4.92240966 6.81726387 -3.83919131 5.11892175 -2.4375 3.25 C-1.98246094 2.63640625 -1.52742188 2.0228125 -1.05859375 1.390625 C-0.70925781 0.93171875 -0.35992187 0.4728125 0 0 Z " fill="#1D763A" transform="translate(124,53)"/>
<path d="M0 0 C3.43301849 3.24744993 5.51567521 5.85945868 8 10 C5.03 14.95 5.03 14.95 2 20 C-3.47169811 13.39622642 -3.47169811 13.39622642 -5 10 C-4.07156311 6.28625246 -2.02816112 3.22661996 0 0 Z " fill="#1E773B" transform="translate(111,71)"/>
<path d="M0 0 C3.95652174 3.95652174 3.95652174 3.95652174 5 7 C4.76785487 12.22326533 2.68977893 15.66164688 0 20 C-3.49999654 16.82092005 -4.98593331 13.23648511 -7 9 C-4.69 6.03 -2.38 3.06 0 0 Z " fill="#1C7539" transform="translate(138,71)"/>
<path d="M0 0 C-2.46278801 2.46278801 -4.70676982 2.99771255 -8 4 C-8.33 3.01 -8.66 2.02 -9 1 C-5.8035914 -0.06546953 -3.34252724 -0.07427838 0 0 Z " fill="#BAD5C3" transform="translate(221,59)"/>
<path d="M0 0 C3.3 0.33 6.6 0.66 10 1 C9.01 1.495 9.01 1.495 8 2 C7.67 2.66 7.34 3.32 7 4 C4.69 3.01 2.38 2.02 0 1 C0 0.67 0 0.34 0 0 Z " fill="#B8D4C1" transform="translate(29,59)"/>
</svg>
